<svg width="100" height="100" viewBox="0 0 100 100" fill="none" xmlns="http://www.w3.org/2000/svg">
<path d="M68.6833 49.9L94.3125 27.6333V71.9125L68.6833 49.9ZM35.6583 53.6708L44.6583 61.4833C46.0708 62.6833 47.9125 63.4083 49.925 63.4083H49.9958H50.05C52.0667 63.4083 53.9083 62.6792 55.3375 61.4708L55.325 61.4792L64.325 53.6667L91.6833 77.1625H8.3125L35.6583 53.6708ZM8.275 22.3542H91.7333L51.6458 57.1708C51.1971 57.5309 50.6378 57.7252 50.0625 57.7208H50.0042H49.95C49.3727 57.7249 48.8118 57.5291 48.3625 57.1667L48.3667 57.1708L8.275 22.3542ZM5.6875 27.6292L31.3125 49.8958L5.6875 71.8958V27.6292ZM95.6875 17.4583C94.6875 16.9583 93.5125 16.6667 92.2667 16.6667H7.74583C6.5387 16.6714 5.34864 16.9522 4.26667 17.4875L4.3125 17.4667C3.02028 18.1062 1.93207 19.0935 1.17023 20.3176C0.408388 21.5417 0.00312424 22.954 1.90735e-06 24.3958L1.90735e-06 75.1125C0.00220776 77.165 0.818554 79.1329 2.26992 80.5842C3.72129 82.0356 5.68913 82.852 7.74167 82.8542H92.2542C94.3067 82.852 96.2745 82.0356 97.7259 80.5842C99.1773 79.1329 99.9936 77.165 99.9958 75.1125V24.3958C99.9958 21.3667 98.25 18.7417 95.7083 17.4792L95.6625 17.4583H95.6875Z" fill="#1B0C76"/>
</svg>
