<svg width="85" height="86" viewBox="0 0 85 86" fill="none" xmlns="http://www.w3.org/2000/svg">
<path d="M65.0781 0H19.9219C8.91933 0 0 9.02426 0 20.1562V65.8438C0 76.9757 8.91933 86 19.9219 86H65.0781C76.0807 86 85 76.9757 85 65.8438V20.1562C85 9.02426 76.0807 0 65.0781 0Z" fill="#1B0C76"/>
<path d="M61.3312 73.1286H71.0497C71.4019 73.1286 71.7397 72.987 71.9887 72.7351C72.2378 72.4832 72.3777 72.1415 72.3778 71.7851L72.3828 51.0101C72.3828 40.1516 70.0702 31.8052 57.5284 31.8052C52.7608 31.6258 48.2647 34.1124 45.8386 38.2646C45.8267 38.2848 45.8087 38.3005 45.7872 38.3093C45.7657 38.3181 45.7419 38.3196 45.7195 38.3134C45.6971 38.3073 45.6773 38.2939 45.6632 38.2753C45.649 38.2568 45.6412 38.234 45.641 38.2105V34.1514C45.641 33.795 45.5011 33.4532 45.252 33.2012C45.0029 32.9492 44.6651 32.8077 44.3129 32.8077H35.0901C34.7378 32.8077 34.4 32.9492 34.1509 33.2012C33.9019 33.4532 33.7619 33.795 33.7619 34.1514V71.7831C33.7619 72.1395 33.9019 72.4813 34.1509 72.7333C34.4 72.9853 34.7378 73.1269 35.0901 73.1269H44.808C45.1602 73.1269 45.498 72.9853 45.7471 72.7333C45.9961 72.4813 46.1361 72.1395 46.1361 71.7831V53.1813C46.1361 47.9215 47.1222 42.8277 53.5673 42.8277C59.9207 42.8277 60.003 48.8463 60.003 53.5219V71.7848C60.003 72.1412 60.143 72.483 60.392 72.735C60.6411 72.987 60.9789 73.1286 61.3312 73.1286ZM12.6172 20.0313C12.6172 24.0168 15.8601 27.2963 19.7997 27.2963C23.7382 27.2959 26.9792 24.0145 26.9792 20.0296C26.9785 16.0447 23.7372 12.7656 19.7984 12.7656C15.8585 12.7656 12.6172 16.0457 12.6172 20.0313ZM14.9278 73.1286H24.6586C25.0109 73.1286 25.3487 72.987 25.5978 72.735C25.8468 72.483 25.9868 72.1412 25.9868 71.7848V34.1514C25.9868 33.795 25.8468 33.4532 25.5978 33.2012C25.3487 32.9492 25.0109 32.8077 24.6586 32.8077H14.9278C14.5756 32.8077 14.2377 32.9492 13.9887 33.2012C13.7396 33.4532 13.5997 33.795 13.5997 34.1514V71.7848C13.5997 72.1412 13.7396 72.483 13.9887 72.735C14.2377 72.987 14.5756 73.1286 14.9278 73.1286Z" fill="white"/>
</svg>
