<svg width="100" height="100" viewBox="0 0 100 100" fill="none" xmlns="http://www.w3.org/2000/svg">
<path fill-rule="evenodd" clip-rule="evenodd" d="M12.5 12.5C12.5 6.99 16.99 2.5 22.5 2.5H55.95C58.76 2.5 61.41 3.69 63.275 5.655L63.305 5.69L84.865 29.2C86.66 31.115 87.5 33.62 87.5 36V87.5C87.5 93.01 83.01 97.5 77.5 97.5H22.5C16.99 97.5 12.5 93.01 12.5 87.5V12.5ZM55.945 12.5H22.5V87.5H77.5V35.96L56.02 12.535L56.005 12.53L55.945 12.5Z" fill="#1B0C76"/>
<path fill-rule="evenodd" clip-rule="evenodd" d="M55.95 2.5C57.2761 2.5 58.5479 3.02678 59.4855 3.96447C60.4232 4.90215 60.95 6.17392 60.95 7.5V31H82.5C83.1566 31 83.8068 31.1293 84.4134 31.3806C85.02 31.6319 85.5712 32.0002 86.0355 32.4645C86.4998 32.9288 86.8681 33.48 87.1194 34.0866C87.3707 34.6932 87.5 35.3434 87.5 36C87.5 36.6566 87.3707 37.3068 87.1194 37.9134C86.8681 38.52 86.4998 39.0712 86.0355 39.5355C85.5712 39.9998 85.02 40.3681 84.4134 40.6194C83.8068 40.8707 83.1566 41 82.5 41H55.95C54.6239 41 53.3521 40.4732 52.4145 39.5355C51.4768 38.5979 50.95 37.3261 50.95 36V7.5C50.95 6.17392 51.4768 4.90215 52.4145 3.96447C53.3521 3.02678 54.6239 2.5 55.95 2.5Z" fill="#1B0C76"/>
</svg>
